<?xml version="1.0" standalone="no"?>
<!DOCTYPE svg PUBLIC "-//W3C//DTD SVG 20010904//EN"
 "http://www.w3.org/TR/2001/REC-SVG-20010904/DTD/svg10.dtd">
<svg version="1.0" xmlns="http://www.w3.org/2000/svg"
 width="1115.000000pt" height="224.000000pt" viewBox="0 0 1115.000000 224.000000"
 preserveAspectRatio="xMidYMid meet">

<g transform="translate(0.000000,224.000000) scale(0.100000,-0.100000)"
fill="#000000" stroke="none">
<path d="M1283 1973 c-26 -20 -175 -163 -331 -317 -266 -265 -286 -282 -338
-298 -30 -9 -61 -22 -69 -28 -62 -52 65 -171 259 -244 170 -64 298 -80 523
-65 50 4 96 10 103 14 11 7 120 -90 120 -107 0 -4 -15 -31 -33 -60 -116 -184
-194 -584 -141 -718 18 -46 38 -60 84 -60 35 0 36 1 330 280 107 103 229 218
270 257 295 280 320 307 321 349 2 66 -2 98 -16 124 -8 14 -70 81 -138 149
-116 114 -126 123 -145 110 -29 -21 -252 -211 -252 -216 0 -6 36 15 127 74 47
30 88 52 91 49 10 -11 -134 -344 -164 -377 -34 -37 -76 -20 -163 69 -47 47
-58 50 -89 22 -12 -11 -27 -20 -34 -20 -18 0 -128 112 -128 131 0 9 9 24 20
34 11 10 20 25 20 34 0 9 -29 44 -65 79 -88 85 -89 124 -3 168 74 37 332 144
336 139 3 -2 -22 -46 -55 -97 -33 -51 -63 -100 -67 -108 -11 -21 45 39 142
155 l83 98 -183 185 c-101 101 -200 195 -220 208 -28 18 -51 24 -92 24 -47 0
-61 -5 -103 -37z m197 -200 c11 -34 20 -45 47 -55 42 -15 42 -24 -1 -42 -27
-11 -36 -23 -47 -60 -16 -54 -28 -55 -43 0 -9 30 -20 43 -49 57 -45 22 -47 33
-8 42 35 8 47 20 57 60 7 31 27 63 30 49 1 -5 7 -28 14 -51z m-371 -382 c-9
-32 -9 -50 -1 -80 14 -46 15 -51 3 -51 -5 0 -12 14 -16 31 -4 18 -16 35 -31
41 -29 14 -31 28 -4 28 11 0 23 6 25 13 19 54 26 69 31 64 3 -3 0 -23 -7 -46z
m48 -31 c19 0 12 -20 -13 -36 -18 -12 -19 -10 -20 34 -2 40 0 44 9 25 5 -13
16 -23 24 -23z m588 -649 c4 -20 14 -31 31 -35 30 -8 27 -30 -5 -34 -15 -2
-24 -13 -28 -33 -8 -42 -22 -46 -30 -9 -4 21 -14 35 -29 41 -31 11 -30 27 1
35 17 4 25 13 25 28 0 44 26 49 35 7z"/>
<path d="M8110 1483 c-46 -17 -48 -27 -43 -173 l6 -138 -72 -12 c-172 -29
-271 -131 -271 -280 0 -67 23 -135 58 -173 9 -11 40 -31 67 -46 45 -24 60 -26
160 -26 121 0 157 12 229 75 64 57 66 68 50 405 -7 165 -16 310 -19 322 -3 13
-19 29 -35 38 -28 15 -100 19 -130 8z m-30 -461 c0 -22 3 -79 6 -128 6 -87 6
-90 -21 -122 -32 -38 -54 -40 -85 -7 -34 37 -41 155 -11 212 23 46 64 83 92
83 15 0 19 -8 19 -38z"/>
<path d="M5945 1446 l-26 -26 6 -238 c11 -462 14 -502 41 -529 31 -31 119 -33
157 -3 24 19 25 23 29 172 3 128 7 160 23 192 11 22 27 44 36 49 22 13 65 1
74 -20 4 -10 10 -100 14 -199 5 -130 10 -186 20 -198 21 -25 115 -22 142 5 21
21 22 28 16 161 -4 77 -12 170 -18 206 -10 57 -17 72 -50 104 -49 46 -124 65
-211 51 -32 -5 -60 -7 -62 -4 -2 3 -5 62 -5 131 -2 152 -8 161 -100 168 -54 4
-62 2 -86 -22z"/>
<path d="M10337 1450 l-29 -23 6 -251 c11 -452 15 -496 42 -523 31 -31 119
-33 157 -3 24 19 25 23 29 172 3 128 7 160 23 192 11 22 27 44 36 49 22 13 65
1 74 -20 4 -10 11 -100 14 -200 5 -127 11 -186 20 -197 17 -20 109 -22 136 -2
13 9 20 30 23 69 5 64 -14 295 -29 349 -22 81 -136 131 -249 110 -30 -5 -57
-8 -60 -5 -3 2 -6 62 -8 133 -4 153 -9 161 -100 168 -48 3 -62 0 -85 -18z"/>
<path d="M8610 1389 c-96 -10 -183 -18 -192 -18 -9 -1 -29 -11 -44 -24 -23
-20 -25 -26 -15 -44 14 -27 38 -35 126 -42 l70 -6 17 -150 c9 -83 20 -213 25
-289 9 -134 11 -140 37 -163 40 -34 127 -33 162 2 24 24 25 29 19 113 -6 77
-27 309 -42 463 l-6 56 58 7 c109 13 163 59 115 98 -28 23 -89 22 -330 -3z"/>
<path d="M3372 1393 c-45 -9 -93 -74 -156 -212 -34 -74 -65 -136 -71 -137 -5
-2 -46 63 -91 144 -94 171 -116 192 -201 192 -44 0 -58 -4 -79 -25 -25 -25
-25 -28 -20 -138 3 -61 9 -210 12 -330 6 -217 6 -217 31 -237 42 -33 150 -24
175 14 9 13 9 178 -1 324 -3 57 -3 108 0 113 3 5 25 -27 49 -71 51 -95 78
-120 129 -120 53 0 76 22 126 118 l45 87 -6 -218 c-6 -218 -6 -218 17 -243 19
-21 31 -24 89 -24 57 0 70 3 88 23 22 23 22 28 22 361 l0 337 -25 24 c-24 25
-67 30 -133 18z"/>
<path d="M7237 1389 c-71 -5 -93 -10 -110 -27 -20 -21 -20 -24 -8 -109 7 -48
15 -200 18 -338 4 -213 8 -253 22 -269 15 -18 28 -18 211 -12 107 3 212 11
232 17 65 18 75 75 17 99 -21 9 -64 11 -145 7 l-114 -5 0 107 0 108 74 6 c83
6 116 19 116 46 0 33 -30 46 -114 51 l-81 5 -6 70 c-3 39 -9 82 -13 96 -7 24
-5 27 31 32 21 4 70 7 108 7 122 0 181 31 155 79 -22 41 -125 49 -393 30z"/>
<path d="M4955 1369 c-16 -5 -36 -16 -42 -26 -18 -23 -16 -84 2 -110 31 -45
134 -55 176 -17 21 19 26 83 8 116 -11 21 -67 49 -96 47 -10 0 -31 -5 -48 -10z"/>
<path d="M3782 1156 c-118 -39 -175 -119 -176 -247 0 -124 45 -192 164 -248
51 -24 67 -26 216 -28 153 -3 162 -2 189 19 28 21 28 22 21 112 -10 132 -34
297 -46 311 -6 7 -44 30 -85 51 -66 33 -86 38 -158 41 -51 2 -98 -2 -125 -11z
m153 -89 c38 -21 40 -25 46 -82 14 -123 10 -186 -11 -220 -26 -42 -44 -49 -80
-30 -84 43 -95 250 -18 342 14 17 16 17 63 -10z"/>
<path d="M4334 1159 c-17 -5 -39 -18 -49 -29 -17 -19 -17 -27 -1 -197 9 -98
16 -195 16 -216 0 -60 34 -87 107 -87 41 0 65 6 82 19 24 18 24 20 19 144 -6
121 -5 127 18 161 28 41 52 56 88 56 35 0 39 -22 38 -197 -1 -178 2 -183 95
-183 74 0 83 16 82 150 -1 226 -22 312 -90 358 -29 21 -42 23 -92 18 -32 -3
-81 -16 -109 -28 l-51 -22 -18 23 c-10 12 -33 26 -51 32 -38 10 -42 10 -84 -2z"/>
<path d="M9186 1159 c-111 -27 -170 -113 -167 -240 3 -125 76 -238 176 -272
63 -22 194 -22 266 -1 62 18 115 55 132 91 10 22 8 28 -12 44 -44 36 -153 21
-218 -31 -51 -40 -112 -16 -116 46 -2 29 -2 29 69 35 72 7 152 35 187 67 29
26 57 87 57 124 0 50 -34 96 -88 121 -53 24 -217 33 -286 16z m193 -85 c12
-15 21 -37 21 -49 0 -48 -62 -95 -142 -110 -38 -7 -38 -7 -38 26 0 52 19 109
45 135 34 34 87 33 114 -2z"/>
<path d="M9871 1150 c-89 -32 -136 -71 -173 -144 -17 -33 -20 -53 -16 -120 6
-115 45 -182 133 -229 34 -19 56 -22 145 -22 98 0 109 2 165 31 153 80 154
152 1 141 -66 -4 -72 -7 -101 -41 -35 -43 -66 -46 -100 -12 -28 28 -39 77 -33
149 11 133 94 185 128 81 9 -28 19 -36 52 -45 47 -12 105 -4 131 18 70 64 -96
214 -236 213 -23 -1 -66 -9 -96 -20z"/>
<path d="M5437 1150 c-63 -16 -116 -48 -134 -83 -19 -37 -22 -112 -4 -144 24
-46 140 -83 257 -83 90 0 137 -38 98 -81 -28 -31 -139 -27 -184 6 -43 32 -137
36 -163 7 -44 -48 4 -113 98 -132 33 -7 105 -10 169 -8 93 3 120 8 167 29 66
31 100 74 106 134 7 56 -14 87 -77 114 -52 22 -155 40 -232 41 -66 0 -98 17
-98 50 0 55 117 70 186 24 29 -20 51 -26 95 -27 64 -2 89 12 89 50 0 72 -68
105 -225 109 -60 2 -127 -1 -148 -6z"/>
<path d="M400 1086 c-8 -15 -11 -46 -8 -83 5 -71 31 -111 97 -146 91 -50 138
-61 262 -60 160 2 255 21 404 85 75 32 239 127 232 134 -2 3 -40 -7 -83 -21
-118 -39 -201 -48 -379 -42 -122 3 -179 10 -239 26 -98 27 -197 73 -230 106
-31 31 -39 31 -56 1z"/>
<path d="M4942 1093 c-20 -17 -20 -21 -7 -73 8 -30 20 -120 28 -199 13 -136
16 -146 41 -168 35 -30 122 -33 156 -5 l23 19 -17 176 c-20 203 -27 232 -67
252 -40 21 -131 20 -157 -2z"/>
<path d="M6601 1067 c-13 -6 -28 -22 -32 -34 -7 -19 -3 -26 18 -40 40 -26 347
-25 416 1 53 20 62 45 25 70 -18 13 -57 16 -213 16 -131 0 -197 -4 -214 -13z"/>
</g>
</svg>
